# xmcd
#
# Track frame offsets:
# 150
# 16075
# 35405
# 51545
# 70240
# 92920
# 114335
# 129260
# 146695
# 168120
# 185290
# 199080
# 214890
# 236200
#
# Disc length: 3412 seconds
#
#
# Revision: 2
# Processed by: cddbd v1.5.1PL2 Copyright (c) Steve Scherf et al.
# Submitted via: FreeRIP 2.945 
#
DISCID=c50d520e
DTITLE=Various Artist - A Música do Sul vol.1
DYEAR=1900
DGENRE=
TTITLE0=Daniel Torres - Canto Alegretense
TTITLE1=Os Araganos - Céu, Sol, Sul, Terra e Cor
TTITLE2=Nardel Silva e os Oliveiras - Obrigado, Patrão Velho
TTITLE3=Cezar Passarinho - Guri
TTITLE4=Wilson Paim - Última Carrega
TTITLE5=Helmo de Freitas - Lago verde-azul
TTITLE6=Nenito Sarturi e os Campeadores - Um Pito
TTITLE7=Dante Ramon Ledesma - América Latina
TTITLE8=Luiz Carlos Borges - A Copla de Assoviar Solito
TTITLE9=Victor Hugo - Desgarrados
TTITLE10=Tchê Barbaridade - Ausência
TTITLE11=Porca Véia - Lembranças
TTITLE12=Leopoldo Rassier - Sabe, Moço
TTITLE13=Alex - Tertúlia
EXTD=
EXTT0=
EXTT1=
EXTT2=
EXTT3=
EXTT4=
EXTT5=
EXTT6=
EXTT7=
EXTT8=
EXTT9=
EXTT10=
EXTT11=
EXTT12=
EXTT13=
PLAYORDER=
